<svg width="5766" height="853" viewBox="0 0 5766 853" fill="none" xmlns="http://www.w3.org/2000/svg">
<path d="M2593 100.612C2286.18 178.709 2285.5 550.768 1884.96 401.552C1746.65 350.027 1557.83 352.865 1441 401.552V494.142C1441 494.142 1750 352.5 2049.5 705.5C2349 1058.5 2883 667 2883 667V185.9C2765.5 129.041 2715.82 69.3509 2593 100.612Z" fill="url(#paint0_linear_74_56)"/>
<path d="M290 794.382C596.819 716.285 597.5 344.226 998.038 493.442C1136.35 544.967 1325.17 542.129 1442 493.442V400.852C1442 400.852 1133 542.494 833.5 189.494C534 -163.506 0 227.994 0 227.994V709.094C117.5 765.952 167.183 825.643 290 794.382Z" fill="url(#paint1_linear_74_56)"/>
<path d="M3173 752.382C3479.82 674.285 3480.5 302.226 3881.04 451.442C4019.35 502.967 4208.17 500.129 4325 451.442V358.852C4325 358.852 4016 500.494 3716.5 147.494C3417 -205.506 2883 185.994 2883 185.994V667.094C3000.5 723.952 3050.18 783.643 3173 752.382Z" fill="url(#paint2_linear_74_56)"/>
<path d="M5476 58.6122C5169.18 136.709 5168.5 508.768 4767.96 359.552C4629.65 308.027 4440.83 310.865 4324 359.552V452.142C4324 452.142 4633 310.5 4932.5 663.5C5232 1016.5 5766 625 5766 625V143.9C5648.5 87.0415 5598.82 27.3509 5476 58.6122Z" fill="url(#paint3_linear_74_56)"/>
<defs>
<linearGradient id="paint0_linear_74_56" x1="2761" y1="613.112" x2="1630.08" y2="736.159" gradientUnits="userSpaceOnUse">
<stop stop-color="#590D56"/>
<stop offset="1" stop-color="#8C1688"/>
</linearGradient>
<linearGradient id="paint1_linear_74_56" x1="122" y1="281.882" x2="1252.92" y2="158.835" gradientUnits="userSpaceOnUse">
<stop stop-color="#590D56"/>
<stop offset="1" stop-color="#8C1688"/>
</linearGradient>
<linearGradient id="paint2_linear_74_56" x1="3005" y1="239.882" x2="4135.92" y2="116.835" gradientUnits="userSpaceOnUse">
<stop stop-color="#590D56"/>
<stop offset="1" stop-color="#8C1688"/>
</linearGradient>
<linearGradient id="paint3_linear_74_56" x1="5644" y1="571.112" x2="4513.08" y2="694.159" gradientUnits="userSpaceOnUse">
<stop stop-color="#590D56"/>
<stop offset="1" stop-color="#8C1688"/>
</linearGradient>
</defs>
</svg>
